<svg xmlns="http://www.w3.org/2000/svg" width="1000" height="1000" viewBox="0 0 256 256" fill="none">
  <style>
    .bg { fill: black; }
    .fg { fill: white; stroke: white; }
    @media (prefers-color-scheme: dark) {
      .bg { fill: white; }
      .fg { fill: black; stroke: black; }
    }
  </style>
  <rect width="256" height="256" rx="65" class="bg"/>
  <path d="M138.667 53.3333H117.333C111.442 53.3333 106.667 58.109 106.667 64V85.3333C106.667 91.2244 111.442 96 117.333 96H138.667C144.558 96 149.333 91.2244 149.333 85.3333V64C149.333 58.109 144.558 53.3333 138.667 53.3333Z" class="fg"/>
  <path d="M128 90.6667L74.6667 144" class="fg" stroke-width="8"/>
  <path d="M128 90.6667L181.333 144" class="fg" stroke-width="8"/>
  <path d="M85.3333 138.667H64C58.109 138.667 53.3333 143.442 53.3333 149.333V192C53.3333 197.891 58.109 202.667 64 202.667H85.3333C91.2244 202.667 96 197.891 96 192V149.333C96 143.442 91.2244 138.667 85.3333 138.667Z" class="fg"/>
  <path d="M192 138.667H170.667C164.776 138.667 160 143.442 160 149.333V192C160 197.891 164.776 202.667 170.667 202.667H192C197.891 202.667 202.667 197.891 202.667 192V149.333C202.667 143.442 197.891 138.667 192 138.667Z" class="fg"/>
</svg>
